<svg xmlns="http://www.w3.org/2000/svg" viewBox="0 0 64 64" width="64" height="64">
  <rect width="64" height="64" fill="none"/>
  <!-- Face Outline -->
  <rect x="12" y="12" width="40" height="40" fill="#FFA500"/>
  <!-- Ears -->
  <path d="M 12 12 L 20 4 L 28 12 Z" fill="#FFA500"/>
  <path d="M 52 12 L 44 4 L 36 12 Z" fill="#FFA500"/>
  <!-- Inner Ears -->
  <path d="M 16 12 L 20 8 L 24 12 Z" fill="#FFC04D"/>
  <path d="M 48 12 L 44 8 L 40 12 Z" fill="#FFC04D"/>
  <!-- Eyes -->
  <rect x="20" y="24" width="8" height="8" fill="#000000"/>
  <rect x="36" y="24" width="8" height="8" fill="#000000"/>
  <!-- Pupils -->
  <rect x="22" y="26" width="2" height="2" fill="#FFFFFF"/>
  <rect x="38" y="26" width="2" height="2" fill="#FFFFFF"/>
  <!-- Nose -->
  <rect x="28" y="34" width="8" height="6" fill="#FF69B4"/>
  <!-- Whiskers -->
  <path d="M 4 32 L 16 34" stroke="#000000" stroke-width="2"/>
  <path d="M 4 38 L 16 38" stroke="#000000" stroke-width="2"/>
  <path d="M 60 32 L 48 34" stroke="#000000" stroke-width="2"/>
  <path d="M 60 38 L 48 38" stroke="#000000" stroke-width="2"/>
</svg>